<?xml version="1.0" encoding="UTF-8" standalone="no"?>
<svg width="30px" height="30px" viewBox="0 0 30 31" version="1.1" xmlns="http://www.w3.org/2000/svg" xmlns:xlink="http://www.w3.org/1999/xlink">
    <!-- Generator: Sketch 3.7.2 (28276) - http://www.bohemiancoding.com/sketch -->
    <title>Shape</title>
    <desc>Created with Sketch.</desc>
    <defs></defs>
    <g id="Page-1" stroke="none" stroke-width="1" fill="none" fill-rule="evenodd" opacity="0.7">
        <path d="M29.29,30.01 L0.7,30.01 C0.31,30.01 0,29.69 0,29.31 L0,2.67 C0,2.29 0.31,1.97 0.7,1.97 L4.93,1.97 L4.93,0.7 C4.93,0.31 5.24,0 5.63,0 L9.57,0 C9.96,0 10.28,0.31 10.28,0.7 L10.28,1.97 L19.71,1.97 L19.71,0.7 C19.71,0.31 20.03,0 20.42,0 L24.36,0 C24.75,0 25.07,0.31 25.07,0.7 L25.07,1.97 L29.29,1.97 C29.68,1.97 29.99,2.29 29.99,2.67 L29.99,29.31 C29.99,29.69 29.68,30.01 29.29,30.01 L29.29,30.01 Z M8.87,1.41 L6.33,1.41 L6.33,4.93 L8.87,4.93 L8.87,1.41 L8.87,1.41 Z M23.66,1.41 L21.12,1.41 L21.12,4.93 L23.66,4.93 L23.66,1.41 L23.66,1.41 Z M28.59,3.38 L25.07,3.38 L25.07,5.63 C25.07,6.02 24.75,6.34 24.36,6.34 L20.42,6.34 C20.03,6.34 19.71,6.02 19.71,5.63 L19.71,3.38 L10.28,3.38 L10.28,5.63 C10.28,6.02 9.96,6.34 9.57,6.34 L5.63,6.34 C5.24,6.34 4.93,6.02 4.93,5.63 L4.93,3.38 L1.41,3.38 L1.41,8.87 L28.59,8.87 L28.59,3.38 L28.59,3.38 Z M28.59,10.28 L1.41,10.28 L1.41,28.6 L28.59,28.6 L28.59,10.28 L28.59,10.28 Z M3.19,15.21 C2.8,15.21 2.48,14.9 2.48,14.51 C2.48,14.12 2.8,13.81 3.19,13.81 L6.9,13.81 L6.9,11.89 C6.9,11.51 7.21,11.19 7.6,11.19 C7.99,11.19 8.31,11.51 8.31,11.89 L8.31,13.81 L13.8,13.81 L13.8,11.89 C13.8,11.51 14.11,11.19 14.5,11.19 C14.89,11.19 15.21,11.51 15.21,11.89 L15.21,13.81 L20.7,13.81 L20.7,11.89 C20.7,11.51 21.02,11.19 21.4,11.19 C21.79,11.19 22.11,11.51 22.11,11.89 L22.11,13.81 L26.8,13.81 C27.19,13.81 27.51,14.12 27.51,14.51 C27.51,14.9 27.19,15.21 26.8,15.21 L22.11,15.21 L22.11,18.74 L26.8,18.74 C27.19,18.74 27.51,19.05 27.51,19.44 C27.51,19.83 27.19,20.15 26.8,20.15 L22.11,20.15 L22.11,23.67 L26.8,23.67 C27.19,23.67 27.51,23.99 27.51,24.37 C27.51,24.76 27.19,25.08 26.8,25.08 L22.11,25.08 L22.11,26.82 C22.11,27.21 21.79,27.52 21.4,27.52 C21.02,27.52 20.7,27.21 20.7,26.82 L20.7,25.08 L15.21,25.08 L15.21,26.82 C15.21,27.21 14.89,27.52 14.5,27.52 C14.11,27.52 13.8,27.21 13.8,26.82 L13.8,25.08 L8.31,25.08 L8.31,26.82 C8.31,27.21 7.99,27.52 7.6,27.52 C7.21,27.52 6.9,27.21 6.9,26.82 L6.9,25.08 L3.19,25.08 C2.8,25.08 2.48,24.76 2.48,24.37 C2.48,23.99 2.8,23.67 3.19,23.67 L6.9,23.67 L6.9,20.15 L3.19,20.15 C2.8,20.15 2.48,19.83 2.48,19.44 C2.48,19.05 2.8,18.74 3.19,18.74 L6.9,18.74 L6.9,15.21 L3.19,15.21 L3.19,15.21 Z M8.31,20.15 L8.31,23.67 L13.8,23.67 L13.8,20.15 L8.31,20.15 L8.31,20.15 Z M13.8,18.74 L13.8,15.21 L8.31,15.21 L8.31,18.74 L13.8,18.74 L13.8,18.74 Z M15.21,20.15 L15.21,23.67 L20.7,23.67 L20.7,20.15 L15.21,20.15 L15.21,20.15 Z M20.7,18.74 L20.7,15.21 L15.21,15.21 L15.21,18.74 L20.7,18.74 L20.7,18.74 Z" id="Shape" fill="#EF403D"></path>
    </g>
</svg>