<?xml version="1.0" encoding="UTF-8" standalone="no"?>
<svg width="30px" height="30px" viewBox="0 0 39 39" version="1.1" xmlns="http://www.w3.org/2000/svg" xmlns:xlink="http://www.w3.org/1999/xlink">
    <!-- Generator: Sketch 3.7.2 (28276) - http://www.bohemiancoding.com/sketch -->
    <title>Shape</title>
    <desc>Created with Sketch.</desc>
    <defs></defs>
    <g id="Page-1" stroke="none" stroke-width="1" fill="none" fill-rule="evenodd" opacity="0.7">
        <path d="M19.5,39 C8.75,39 0,30.25 0,19.5 C0,8.75 8.75,0 19.5,0 C30.25,0 39,8.75 39,19.5 C39,30.25 30.25,39 19.5,39 L19.5,39 Z M19.5,1.81 C9.75,1.81 1.81,9.75 1.81,19.5 C1.81,29.25 9.75,37.19 19.5,37.19 C29.25,37.19 37.19,29.25 37.19,19.5 C37.19,9.75 29.25,1.81 19.5,1.81 L19.5,1.81 Z M29.2,30.11 C28.96,30.11 28.73,30.02 28.56,29.85 L21.22,22.51 C20.7,22.81 20.11,22.97 19.5,22.97 C17.58,22.97 16.03,21.42 16.03,19.5 C16.03,18.18 16.78,16.98 17.95,16.4 L17.95,10.61 C17.95,10.11 18.36,9.7 18.86,9.7 C19.36,9.7 19.77,10.11 19.77,10.61 L19.77,16.04 C21.56,16.17 22.97,17.68 22.97,19.5 C22.97,20.11 22.81,20.7 22.51,21.23 L29.84,28.56 C30.2,28.91 30.2,29.49 29.84,29.85 C29.67,30.02 29.44,30.11 29.2,30.11 L29.2,30.11 Z M19.5,17.84 C18.59,17.84 17.84,18.59 17.84,19.5 C17.84,20.41 18.59,21.16 19.5,21.16 C19.94,21.16 20.36,20.98 20.67,20.67 C20.98,20.36 21.16,19.94 21.16,19.5 C21.16,18.59 20.41,17.84 19.5,17.84 L19.5,17.84 Z" id="Shape" fill="#EF403D"></path>
    </g>
</svg>