<?xml version="1.0" encoding="UTF-8" standalone="no"?>
<svg width="25px" height="30px" viewBox="0 0 25 38" version="1.1" xmlns="http://www.w3.org/2000/svg" xmlns:xlink="http://www.w3.org/1999/xlink">
    <!-- Generator: Sketch 3.7.2 (28276) - http://www.bohemiancoding.com/sketch -->
    <title>Shape</title>
    <desc>Created with Sketch.</desc>
    <defs></defs>
    <g id="Page-1" stroke="none" stroke-width="1" fill="none" fill-rule="evenodd" opacity="0.7">
        <path d="M24.18,8.76 L18.62,8.76 C18.25,5.45 16.69,3.07 14.68,1.62 L24.18,1.62 C24.63,1.62 25,1.25 25,0.81 C25,0.36 24.63,0 24.18,0 L0.82,0 C0.37,0 0,0.36 0,0.81 C0,1.25 0.37,1.62 0.82,1.62 L10.75,1.62 C13.4,2.1 16.42,4.27 16.98,8.76 L0.82,8.76 C0.37,8.76 0,9.12 0,9.57 C0,10.01 0.37,10.38 0.82,10.38 L17.09,10.38 C17.06,12.63 16.27,14.45 14.74,15.79 C10.4,19.59 1.54,18.62 1.45,18.62 C1.12,18.58 0.79,18.74 0.63,19.04 C0.47,19.33 0.51,19.69 0.73,19.95 L16.32,37.72 C16.48,37.9 16.71,38 16.94,38 C17.13,38 17.32,37.94 17.48,37.8 C17.82,37.51 17.86,37 17.56,36.66 L3.25,20.35 C6.34,20.43 12.26,20.13 15.83,17 C17.73,15.34 18.7,13.11 18.73,10.38 L24.18,10.38 C24.63,10.38 25,10.01 25,9.57 C25,9.12 24.63,8.76 24.18,8.76 L24.18,8.76 Z" id="Shape" fill="#EF403D"></path>
    </g>
</svg>