<?xml version="1.0" encoding="UTF-8" standalone="no"?>
<svg width="103px" height="29px" viewBox="0 0 103 29" version="1.1" xmlns="http://www.w3.org/2000/svg" xmlns:xlink="http://www.w3.org/1999/xlink">
    <!-- Generator: Sketch 39.1 (31720) - http://www.bohemiancoding.com/sketch -->
    <title>UpGrad_Final Version (1)</title>
    <desc>Created with Sketch.</desc>
    <defs></defs>
    <g id="FINAL" stroke="none" stroke-width="1" fill="none" fill-rule="evenodd">
        <g id="Home" transform="translate(-252.000000, -17.000000)">
            <g id="UpGrad_Final-Version-(1)" transform="translate(252.000000, 17.000000)">
                <g id="Layer_1">
                    <g id="Group">
                        <path d="M0,0.504280225 L4.37068621,0.504280225 L4.37068621,14.2229828 C4.37068621,15.9139368 4.69395445,17.1491556 5.34281778,17.926566 C5.99051767,18.7029399 7.01882644,19.0921633 8.42741166,19.0921633 C9.85644007,19.0921633 10.8963832,18.705704 11.5482382,17.9338218 C12.2000932,17.1615941 12.5276828,15.924475 12.5276828,14.2229828 L12.5276828,0.504280225 L16.8558206,0.504280225 L16.8558206,14.7127513 C16.8558206,17.3946445 16.1341595,19.4534001 14.6906713,20.8884997 C13.2480141,22.3239448 11.1704548,23.0417538 8.45633129,23.0417538 C5.72209701,23.0417538 3.62991166,22.3263634 2.17911043,20.8955828 C0.725151308,19.4648021 0,17.4041462 0,14.7127513 L0,0.504280225 L0,0.504280225 Z" id="Shape" fill="#FFFFFF"></path>
                        <path d="M19.72734,28.9049832 L19.72734,6.29408751 L23.684675,6.29408751 L23.684675,8.47722873 C24.2840093,7.52654216 24.9536482,6.83326483 25.6912649,6.39756948 C26.4277181,5.96256516 27.2982986,5.74558127 28.2981863,5.74558127 C30.2118678,5.74558127 31.7635553,6.529902 32.9549109,8.09819796 C34.1446045,9.66701218 34.7402823,11.7281863 34.7402823,14.2817204 C34.7402823,16.8644506 34.1446045,18.9606946 32.9549109,20.5694159 C31.7635553,22.1771006 30.2296517,22.9816341 28.3560256,22.9816341 C27.3649467,22.9816341 26.4809036,22.7644774 25.7057247,22.3279183 C24.9290499,21.8923957 24.2840093,21.2599291 23.7697718,20.4279272 L23.7697718,28.9049832 L19.72734,28.9049832 L19.72734,28.9049832 Z M30.6119226,14.4601793 C30.6119226,12.8372919 30.3169092,11.5979269 29.7267161,10.7413934 C29.1355258,9.88485986 28.2789066,9.45676585 27.1550301,9.45676585 C26.0491037,9.45676585 25.2102683,9.88313228 24.6337041,10.7336193 C24.0574722,11.5847973 23.769938,12.8270992 23.769938,14.4601793 C23.769938,15.9833855 24.0717658,17.1619397 24.6769173,17.9923867 C25.2824012,18.8247342 26.135364,19.2405624 27.2407917,19.2405624 C28.2880478,19.2405624 29.1119248,18.814887 29.7127549,17.9637089 C30.3117568,17.1123581 30.6119226,15.9441694 30.6119226,14.4601793 L30.6119226,14.4601793 Z" id="Shape" fill="#FFFFFF"></path>
                        <path d="M61.106837,22.4324368 L61.106837,6.29426027 L64.9629534,6.29426027 L64.9629534,9.05614035 C65.5061105,7.94738034 66.1390182,7.13334525 66.8636708,6.61368957 C67.5866615,6.0940339 68.4487655,5.83420606 69.4486533,5.83420606 C69.6100381,5.83420606 69.7361875,5.83697018 69.8271015,5.84128913 C69.9163534,5.84664463 69.9913118,5.85390046 70.0478214,5.86322938 L70.0624474,10.243678 L68.6779619,10.243678 C67.5434483,10.243678 66.6913165,10.5504959 66.1209018,11.1641319 C65.5479941,11.7774223 65.2632853,12.6885473 65.2632853,13.8954338 L65.2632853,22.4324368 L61.106837,22.4324368 L61.106837,22.4324368 Z" id="Shape" fill="#FFFFFF"></path>
                        <path d="M81.2315726,20.4279272 C80.7088586,21.2694308 80.0235965,21.9101897 79.1751212,22.3508951 C78.3284742,22.7907366 77.3427139,23.0118667 76.2188374,23.0118667 C74.7138534,23.0118667 73.5550739,22.5664969 72.7395072,21.6750663 C71.925935,20.7843267 71.5179024,19.5178387 71.5179024,17.8747386 C71.5179024,16.3499777 71.925935,15.1867989 72.7395072,14.3864117 C73.5549077,13.5846424 74.9001689,13.0349269 76.7754571,12.7379561 C77.2049302,12.6690257 77.766536,12.5900754 78.4616043,12.5012778 C80.2233746,12.2630447 81.1030963,11.7337146 81.1030963,10.9119054 C81.1030963,10.2588806 80.9083043,9.79139785 80.5187204,9.50911149 C80.1273082,9.22665237 79.4754532,9.08568195 78.5606623,9.08568195 C77.7228242,9.08568195 77.0801104,9.25895809 76.6326872,9.60551038 C76.1847654,9.95206267 75.9610538,10.4468412 75.9610538,11.0896732 L75.9610538,11.3279064 L72.0760179,11.3279064 L72.0760179,11.0302445 C72.0760179,9.37746999 72.638621,8.07850356 73.7618326,7.13317249 C74.8853767,6.18801418 76.4383939,5.71534864 78.4188896,5.71534864 C80.5896898,5.71534864 82.2535655,6.10681798 83.4108492,6.88854734 C84.567468,7.67027671 85.1456943,8.79890388 85.1456943,10.2732196 L85.1456943,19.4480446 L85.1456943,22.4320913 L81.2442041,22.4320913 C81.2355615,22.1116254 81.2407138,20.814041 81.2315726,20.4279272 L81.2315726,20.4279272 Z M81.1604369,14.4900664 C80.4854794,14.8169243 79.7061454,15.0781342 78.8244292,15.2762875 C77.9453723,15.4739225 77.4896389,15.57775 77.4610517,15.5879427 C76.7277563,15.8054449 76.2171754,16.0775385 75.924655,16.4049147 C75.6354587,16.7310815 75.4900296,17.1814613 75.4900296,17.7551902 C75.4900296,18.3494773 75.6763451,18.82197 76.0468155,19.1735323 C76.4181169,19.5250946 76.9187256,19.7006166 77.5478106,19.7006166 C78.6710222,19.7006166 79.5539018,19.3709945 80.1964494,18.7126143 C80.8388307,18.0552706 81.1606031,17.1562386 81.1606031,16.0184553 L81.1606031,14.4900664 L81.1604369,14.4900664 Z" id="Shape" fill="#FFFFFF"></path>
                        <path d="M102.637913,0.563536175 L102.637913,22.4324368 L98.6947053,22.4324368 L98.6947053,20.2499866 C98.0955371,21.1903077 97.4215769,21.8804754 96.6743204,22.321008 C95.9270638,22.7606767 95.0486717,22.9816341 94.0393103,22.9816341 C92.1244654,22.9816341 90.5742738,22.1947219 89.3890677,20.621416 C88.2031968,19.0472463 87.6108431,16.9834808 87.6108431,14.4313287 C87.6108431,11.857582 88.2031968,9.76600244 89.3890677,8.15779942 C90.5742738,6.54942364 92.1045209,5.74540851 93.9814711,5.74540851 C94.9810264,5.74540851 95.8740445,5.96256516 96.6595281,6.39756948 C97.445178,6.83309207 98.0953709,7.46711345 98.6089436,8.29859709 L98.6089436,0.563536175 L102.637913,0.563536175 L102.637913,0.563536175 Z M91.7664604,14.2516606 C91.7664604,15.8847407 92.0634683,17.1291157 92.6529965,17.9861675 C93.2445192,18.8414917 94.0959861,19.2704495 95.2100565,19.2704495 C96.3138223,19.2704495 97.1568127,18.8442558 97.7381969,17.9927323 C98.3185839,17.141727 98.6091098,15.8944152 98.6091098,14.2516606 C98.6091098,12.7281089 98.3039579,11.5523188 97.6946513,10.7263634 C97.0856771,9.90006255 96.2290578,9.48648021 95.1236301,9.48648021 C94.0868449,9.48648021 93.2667906,9.90973699 92.6672901,10.7564233 C92.0682882,11.6022459 91.7664604,12.7676704 91.7664604,14.2516606 L91.7664604,14.2516606 Z" id="Shape" fill="#FFFFFF"></path>
                        <path d="M57.9045702,11.6532094 L47.8918977,11.6532094 L47.8918977,15.4101748 L52.420977,15.4151848 C52.0603127,16.5054597 51.3961585,17.4727311 50.4851903,18.1400947 C49.8158838,18.6756441 48.9394862,18.9954189 47.8558312,19.0520835 C47.848352,19.0520835 47.8431997,19.0520835 47.8357205,19.0527746 C47.7220364,19.0577845 47.6030338,19.0577845 47.4835326,19.0564025 C47.3902917,19.0550204 47.2975495,19.0488011 47.2066355,19.0425818 C47.0475776,19.0332529 46.8916775,19.0211599 46.741096,19.001811 C46.7145032,18.9987013 46.6865808,18.9938641 46.6606529,18.9893724 C46.4693512,18.9620767 46.2870246,18.9271796 46.1086869,18.8843356 C46.0987147,18.8824353 46.0857507,18.8781163 46.0739501,18.875525 C45.894449,18.8314717 45.7234243,18.7784351 45.5572196,18.7183153 C45.5254745,18.7070861 45.4938956,18.6930927 45.4621505,18.6806541 C45.3218737,18.6272719 45.1832589,18.5692253 45.0524558,18.5047866 C44.9813201,18.4693712 44.9135086,18.4291186 44.8443674,18.3907664 C44.7537858,18.3415304 44.6658635,18.2935037 44.5810991,18.2387395 C44.4591048,18.1615167 44.3434263,18.0761743 44.2289113,17.987204 C44.1979972,17.9621541 44.1632604,17.9405594 44.1311829,17.9149912 C43.8348398,17.6707116 43.5594385,17.3889435 43.3066411,17.066059 C42.3074182,15.7750395 41.7920173,14.0583445 41.7235409,11.7907247 C41.7225437,11.7445983 41.7218789,11.6989903 41.719552,11.6530367 C41.7188872,11.6062193 41.7157293,11.5588836 41.7157293,11.5091294 C41.7137348,11.385953 41.7198844,11.2695142 41.7235409,11.1492747 C41.7257016,10.9664969 41.7283608,10.7832008 41.7375021,10.606815 C41.7386655,10.580383 41.742322,10.5549876 41.7436517,10.5276919 C41.8274189,9.16981503 42.096172,8.00058976 42.5529026,7.02450779 C42.6197169,6.88008221 42.6956725,6.74343073 42.771628,6.60798856 C42.797556,6.56168945 42.8189964,6.51279898 42.8465864,6.46822744 C42.917722,6.34764245 42.9963369,6.2346588 43.0729572,6.12115688 C43.1155057,6.05637268 43.1575555,5.99003366 43.2020983,5.92853186 C43.4831506,5.55468382 43.7873052,5.23646383 44.1104073,4.97110774 C44.1217092,4.96177881 44.1346732,4.9548685 44.1458089,4.94605784 C44.2905732,4.82910077 44.4394927,4.72475501 44.5937307,4.62749233 C44.6499079,4.59345903 44.708412,4.56270813 44.7670822,4.53022965 C44.8751153,4.46786406 44.9846442,4.40860811 45.0988269,4.35643523 C45.1877464,4.31445507 45.2813197,4.27817592 45.3753916,4.24258779 C45.4621505,4.20872725 45.5467487,4.17590326 45.6361668,4.14843475 C45.7476902,4.11198284 45.8648646,4.08036815 45.9830362,4.05220862 C46.0571635,4.03389629 46.1341163,4.01506568 46.2097394,4.00055402 C46.3368861,3.97584964 46.4680216,3.95736455 46.6001544,3.939916 C46.6754451,3.93110535 46.7512345,3.92212194 46.8306804,3.9157299 C46.9624807,3.90398237 47.0962755,3.8981086 47.2335607,3.89586275 C47.3419262,3.89327138 47.4477986,3.89206207 47.560153,3.89396241 C47.6286293,3.89586275 47.6971057,3.89707205 47.7669117,3.90121824 C47.8599864,3.90536443 47.9512328,3.91210199 48.0393213,3.91918506 C48.0993212,3.92488607 48.1576591,3.92989605 48.2158307,3.93507878 C48.2886284,3.94371668 48.3595978,3.95373663 48.4317307,3.96254729 C48.534279,3.97671343 48.633337,3.9924344 48.7318965,4.011265 C48.7471873,4.01402913 48.7644726,4.01817532 48.7809269,4.02007566 C49.0441952,4.07345784 49.2941671,4.1429065 49.5315075,4.22790337 C49.5944991,4.25208948 49.6581555,4.2778304 49.7226429,4.30426235 C49.7651914,4.32309296 49.8084046,4.33950496 49.8502882,4.35850833 C50.2242489,4.53282102 50.5880711,4.77053585 50.9618655,5.08823757 C51.0098987,5.13108152 51.0546078,5.17409823 51.0984858,5.22074286 C51.1561589,5.2808626 51.2159926,5.34668335 51.2803138,5.42114199 C51.2912833,5.43409883 51.300757,5.44619188 51.3120589,5.45897596 C51.3590949,5.51754088 51.4091225,5.58042475 51.4594825,5.64831859 C51.4754382,5.67112263 51.4908952,5.69358115 51.5075157,5.71673071 C51.5500641,5.7770232 51.5932774,5.83869776 51.6363244,5.90814643 C51.8979307,6.33416734 52.0967115,6.82289935 52.2258526,7.37779764 L53.322804,7.37779764 L56.6404169,7.37779764 C56.3257913,5.08219105 55.336042,3.27773508 53.6695071,1.9666756 C52.0850772,0.718672743 50.0560497,0.0720400322 47.5957208,0.0119202931 C47.5913995,0.010710988 47.5907347,0.010710988 47.5865795,0.010710988 C47.4615936,0.00760134632 47.3415937,0 47.2122865,0 C47.1935053,0 47.1730621,0.000691031484 47.1531176,0.000691031484 C47.1336716,0.000691031484 47.1175497,0 47.09827,0 C45.8316236,0 44.6708497,0.196771215 43.6116268,0.589449856 C43.6011559,0.593077771 43.589854,0.596705686 43.5797155,0.602579454 C43.5441477,0.613981473 43.5115716,0.627283829 43.4791616,0.641277217 C42.1196068,1.15937807 40.9397193,1.98740655 39.9424908,3.1321002 C38.1252082,5.22108837 37.2147386,8.00663629 37.2147386,11.490817 C37.2147386,11.5011825 37.215902,11.5103387 37.215902,11.5207041 C37.215902,11.5303786 37.2147386,11.5398803 37.2147386,11.5502457 C37.2147386,11.5856611 37.2172316,11.6183123 37.2172316,11.6532094 C37.2363452,15.0886724 38.1428259,17.8419146 39.9424908,19.908617 C40.9397193,21.0527924 42.1196068,21.8813392 43.4791616,22.3990945 C43.5115716,22.4122241 43.5441477,22.4253537 43.5797155,22.4386561 C43.5911836,22.4431478 43.6018207,22.4462574 43.6116268,22.4502308 C44.6708497,22.8436005 45.8316236,23.0417538 47.09827,23.0417538 C47.1175497,23.0417538 47.1336716,23.0391624 47.1531176,23.0391624 C47.1730621,23.0391624 47.1935053,23.0417538 47.2122865,23.0417538 C49.8504544,23.0417538 51.3482916,22.2957853 53.0148266,20.9829982 C53.5864047,20.5338278 54.1473457,19.9810026 54.6459599,19.3602836 L54.6418048,22.4237989 L58.248614,22.4237989 L58.248614,11.6532094 L57.9045702,11.6532094 L57.9045702,11.6532094 Z" id="Shape" fill="#EF403D"></path>
                    </g>
                </g>
            </g>
        </g>
    </g>
</svg>